<svg width="206" height="80" viewBox="0 0 206 80" fill="none" xmlns="http://www.w3.org/2000/svg">
<path d="M82.4903 44.6837C82.4903 45.5455 82.2793 46.4776 81.8513 47.4801C81.4234 48.4826 80.7492 49.4675 79.8346 50.4289C78.9201 51.3962 77.7476 52.1759 76.3231 52.7797C74.8985 53.3836 73.2394 53.6825 71.34 53.6825C69.9037 53.6825 68.5964 53.5477 67.418 53.278C66.2397 53.0084 65.1727 52.5863 64.2113 52.0118C63.2498 51.4431 62.3646 50.6868 61.5615 49.7547C60.8404 48.9047 60.2307 47.955 59.7206 46.9056C59.2106 45.8562 58.8296 44.7306 58.5775 43.5405C58.3254 42.3505 58.1964 41.0842 58.1964 39.7417C58.1964 37.5667 58.513 35.6145 59.152 33.8968C59.791 32.1733 60.7055 30.7018 61.8956 29.4824C63.0857 28.2572 64.4809 27.3309 66.0814 26.686C67.6818 26.047 69.3819 25.7246 71.1934 25.7246C73.3977 25.7246 75.3675 26.1584 77.0852 27.0319C78.8087 27.9054 80.1278 28.9841 81.0482 30.268C81.9686 31.5519 82.4258 32.7654 82.4258 33.9086C82.4258 34.5358 82.2031 35.0869 81.7575 35.5676C81.312 36.0484 80.7726 36.2887 80.1395 36.2887C79.4301 36.2887 78.9025 36.1246 78.5508 35.7904C78.199 35.4562 77.8062 34.8876 77.3724 34.0786C76.6513 32.7361 75.8072 31.7395 74.834 31.0711C73.8608 30.4028 72.659 30.0745 71.2345 30.0745C68.9657 30.0745 67.1601 30.9304 65.8117 32.6364C64.4692 34.3482 63.795 36.7753 63.795 39.9176C63.795 42.0163 64.094 43.7692 64.6861 45.1644C65.2782 46.5597 66.1224 47.6032 67.2128 48.2891C68.3032 48.975 69.5813 49.3209 71.041 49.3209C72.6297 49.3209 73.9722 48.9281 75.0685 48.1484C76.1648 47.3687 76.9914 46.2197 77.5483 44.7072C77.7828 43.9919 78.0759 43.4116 78.4218 42.966C78.7677 42.5205 79.3246 42.2918 80.0926 42.2918C80.7492 42.2918 81.312 42.5205 81.7868 42.9719C82.2558 43.4292 82.4962 43.9919 82.4962 44.6661L82.4903 44.6837Z" fill="#0079F2"/>
<path d="M91.8761 28.7907V36.2594C92.5209 35.5207 93.1482 34.9404 93.7638 34.5065C94.3793 34.0786 95.0535 33.7561 95.798 33.5392C96.5426 33.3223 97.3398 33.2168 98.1958 33.2168C99.4855 33.2168 100.629 33.4865 101.625 34.0258C102.622 34.5652 103.407 35.3507 103.976 36.3884C104.334 36.9922 104.58 37.6664 104.703 38.4051C104.826 39.1496 104.891 40.0055 104.891 40.9787V50.6224C104.891 51.6307 104.656 52.3928 104.193 52.9087C103.73 53.4246 103.114 53.6825 102.341 53.6825C100.67 53.6825 99.8314 52.6625 99.8314 50.6224V42.1218C99.8314 40.5097 99.591 39.2727 99.1044 38.4051C98.6237 37.5374 97.7033 37.1036 96.355 37.1036C95.4521 37.1036 94.6373 37.3615 93.9103 37.8716C93.1834 38.3816 92.644 39.0792 92.2806 39.9645C92.005 40.7148 91.8702 42.0456 91.8702 43.9685V50.6224C91.8702 51.619 91.6416 52.3752 91.1902 52.897C90.7388 53.4187 90.1056 53.6825 89.3025 53.6825C87.6317 53.6825 86.7933 52.6625 86.7933 50.6224V28.7907C86.7933 27.7706 87.0161 27.0026 87.4558 26.4926C87.8955 25.9826 88.511 25.7246 89.3083 25.7246C90.1056 25.7246 90.7446 25.9826 91.196 26.4985C91.6474 27.0143 91.8761 27.7765 91.8761 28.7848V28.7907Z" fill="#0079F2"/>
<path d="M122.548 50.8451C121.323 51.7949 120.133 52.5042 118.99 52.9732C117.841 53.4481 116.557 53.6826 115.132 53.6826C113.831 53.6826 112.688 53.4246 111.703 52.9204C110.718 52.4104 109.956 51.7187 109.428 50.8451C108.895 49.9716 108.631 49.0278 108.631 48.0077C108.631 46.6301 109.071 45.4576 109.95 44.4844C110.829 43.5112 112.037 42.8605 113.573 42.5322C113.895 42.456 114.693 42.2919 115.971 42.0339C117.249 41.776 118.339 41.5415 119.254 41.3246C120.162 41.1076 121.153 40.8497 122.22 40.539C122.155 39.2141 121.886 38.2351 121.411 37.6136C120.936 36.9922 119.945 36.6815 118.445 36.6815C117.155 36.6815 116.188 36.8574 115.537 37.215C114.886 37.5726 114.329 38.1061 113.866 38.8213C113.403 39.5365 113.075 40.0055 112.881 40.2341C112.688 40.4628 112.277 40.5742 111.644 40.5742C111.075 40.5742 110.583 40.3924 110.167 40.029C109.751 39.6655 109.545 39.2024 109.545 38.6337C109.545 37.7485 109.862 36.8867 110.495 36.0542C111.128 35.2159 112.113 34.53 113.45 33.9907C114.786 33.4513 116.457 33.1816 118.45 33.1816C120.684 33.1816 122.437 33.4455 123.715 33.9672C124.993 34.489 125.896 35.3156 126.417 36.447C126.945 37.5785 127.209 39.0792 127.209 40.9435C127.209 42.1218 127.209 43.1243 127.197 43.9509C127.191 44.7775 127.18 45.6921 127.168 46.7004C127.168 47.6443 127.326 48.635 127.643 49.6609C127.959 50.6869 128.118 51.3493 128.118 51.6424C128.118 52.1583 127.871 52.6273 127.385 53.0553C126.892 53.4774 126.341 53.6884 125.72 53.6884C125.198 53.6884 124.682 53.4481 124.178 52.9615C123.668 52.4749 123.129 51.7714 122.56 50.851L122.548 50.8451ZM122.214 43.564C121.47 43.8337 120.391 44.1209 118.972 44.4199C117.553 44.7189 116.569 44.9417 116.023 45.0824C115.478 45.2231 114.956 45.4986 114.464 45.9148C113.966 46.3252 113.719 46.8997 113.719 47.6384C113.719 48.3771 114.013 49.0512 114.593 49.5847C115.173 50.1182 115.935 50.3879 116.879 50.3879C117.882 50.3879 118.808 50.171 119.658 49.7313C120.508 49.2975 121.13 48.7347 121.528 48.0429C121.985 47.2808 122.214 46.0262 122.214 44.2792V43.5581V43.564Z" fill="#0079F2"/>
<path d="M131.489 33.662H132.045V30.637C132.045 29.828 132.069 29.189 132.11 28.7258C132.151 28.2627 132.274 27.8699 132.473 27.5358C132.673 27.1899 132.954 26.9143 133.329 26.6974C133.699 26.4805 134.115 26.375 134.572 26.375C135.217 26.375 135.797 26.6154 136.319 27.0961C136.665 27.4185 136.888 27.8054 136.982 28.2686C137.075 28.7317 137.122 29.3824 137.122 30.2325V33.662H138.981C139.702 33.662 140.247 33.832 140.628 34.172C141.009 34.5121 141.197 34.9459 141.197 35.4735C141.197 36.1477 140.927 36.6225 140.388 36.8922C139.848 37.1619 139.075 37.2967 138.072 37.2967H137.122V46.5535C137.122 47.3391 137.152 47.9487 137.204 48.3708C137.263 48.7929 137.41 49.1388 137.65 49.4026C137.89 49.6664 138.283 49.8013 138.828 49.8013C139.127 49.8013 139.526 49.7485 140.036 49.643C140.546 49.5375 140.939 49.4847 141.226 49.4847C141.636 49.4847 142.006 49.6489 142.334 49.9713C142.662 50.2996 142.826 50.6982 142.826 51.179C142.826 51.988 142.381 52.6094 141.49 53.0432C140.599 53.477 139.315 53.6881 137.638 53.6881C136.05 53.6881 134.848 53.4243 134.033 52.8966C133.218 52.369 132.679 51.6362 132.427 50.7041C132.174 49.772 132.045 48.5233 132.045 46.9639V37.3026H131.377C130.644 37.3026 130.087 37.1326 129.706 36.7867C129.319 36.4408 129.132 36.007 129.132 35.4794C129.132 34.9517 129.331 34.5179 129.736 34.1779C130.14 33.8379 130.726 33.6679 131.494 33.6679L131.489 33.662Z" fill="#0079F2"/>
<path d="M157.682 42.6961H152.623V50.3466C152.623 51.4429 152.365 52.2695 151.843 52.8381C151.321 53.4009 150.665 53.6882 149.873 53.6882C149.082 53.6882 148.372 53.4068 147.862 52.8498C147.352 52.2929 147.1 51.4722 147.1 50.3876V29.5525C147.1 28.3507 147.382 27.489 147.939 26.9731C148.495 26.4572 149.381 26.1992 150.6 26.1992H157.682C159.775 26.1992 161.387 26.3575 162.518 26.6799C163.632 26.9848 164.6 27.4948 165.409 28.21C166.218 28.9252 166.839 29.7988 167.261 30.8305C167.683 31.8623 167.894 33.0231 167.894 34.3128C167.894 37.0682 167.038 39.1552 165.327 40.5739C163.615 41.9926 161.07 42.702 157.682 42.702V42.6961ZM156.345 30.3029H152.628V38.5631H156.345C157.647 38.5631 158.737 38.4283 159.611 38.1586C160.484 37.8889 161.152 37.4434 161.61 36.8337C162.067 36.2181 162.296 35.415 162.296 34.4183C162.296 33.2283 161.944 32.2551 161.235 31.5047C160.443 30.7074 158.813 30.3088 156.345 30.3088V30.3029Z" fill="#0079F2"/>
<path d="M176.999 46.419V50.6224C176.999 51.6424 176.758 52.4104 176.272 52.9204C175.791 53.4305 175.175 53.6825 174.431 53.6825C173.686 53.6825 173.1 53.4246 172.625 52.9087C172.156 52.3928 171.916 51.6307 171.916 50.6224V36.6111C171.916 34.3482 172.742 33.2168 174.39 33.2168C175.234 33.2168 175.838 33.4806 176.213 34.0082C176.582 34.5358 176.788 35.3155 176.829 36.3532C177.438 35.3214 178.06 34.5417 178.699 34.0082C179.338 33.4806 180.188 33.2168 181.255 33.2168C182.322 33.2168 183.354 33.4806 184.362 34.0082C185.364 34.5358 185.868 35.2393 185.868 36.1128C185.868 36.7284 185.652 37.2326 185.229 37.6312C184.802 38.0299 184.338 38.2292 183.846 38.2292C183.658 38.2292 183.213 38.1178 182.498 37.8892C181.782 37.6605 181.155 37.5491 180.61 37.5491C179.865 37.5491 179.256 37.7426 178.787 38.1295C178.318 38.5164 177.948 39.091 177.69 39.8531C177.432 40.6152 177.251 41.5239 177.151 42.5732C177.051 43.6226 177.004 44.9065 177.004 46.419H176.999Z" fill="#0079F2"/>
<path d="M206 43.4526C206 44.9534 205.766 46.3369 205.291 47.6032C204.822 48.8695 204.136 49.9599 203.245 50.8686C202.354 51.7773 201.287 52.4749 200.044 52.9615C198.801 53.448 197.412 53.6884 195.858 53.6884C194.304 53.6884 192.939 53.4422 191.713 52.9497C190.488 52.4573 189.421 51.7538 188.524 50.8393C187.627 49.9247 186.941 48.8402 186.478 47.5915C186.015 46.3428 185.781 44.9651 185.781 43.4526C185.781 41.9401 186.015 40.5331 186.49 39.2668C186.959 38.0005 187.639 36.9219 188.518 36.019C189.398 35.1221 190.465 34.4303 191.719 33.9437C192.968 33.4572 194.351 33.2168 195.864 33.2168C197.376 33.2168 198.795 33.463 200.05 33.9555C201.298 34.4479 202.371 35.1455 203.268 36.0542C204.159 36.9629 204.839 38.0474 205.302 39.302C205.766 40.5566 206 41.9401 206 43.4526ZM200.906 43.4526C200.906 41.4008 200.448 39.8003 199.54 38.6571C198.631 37.514 197.406 36.9394 195.87 36.9394C194.879 36.9394 194.006 37.1974 193.249 37.7074C192.493 38.2175 191.913 38.9678 191.502 39.9645C191.092 40.9611 190.887 42.1218 190.887 43.4467C190.887 44.7717 191.086 45.909 191.491 46.8938C191.895 47.8787 192.47 48.6291 193.22 49.1509C193.97 49.6726 194.856 49.9365 195.87 49.9365C197.406 49.9365 198.631 49.3619 199.54 48.2129C200.448 47.0639 200.906 45.4751 200.906 43.4467V43.4526Z" fill="#0079F2"/>
<path d="M5.15308 34.2719C5.39344 34.0315 5.65138 33.797 5.90347 33.5684C5.64552 33.797 5.39344 34.0315 5.15308 34.2719Z" fill="#0079F2"/>
<path d="M10.1303 39.583C8.36568 41.4297 7.26941 43.9271 7.26941 46.659C7.26941 43.9212 8.36568 41.4297 10.1303 39.583Z" fill="#0079F2"/>
<path d="M7.60352 49.2852C7.82043 50.1118 8.14286 50.9032 8.55909 51.6536C8.60599 51.7298 8.64703 51.806 8.68807 51.8881C8.64703 51.806 8.60013 51.7298 8.55909 51.6536C8.14286 50.9091 7.82043 50.1118 7.60352 49.2852Z" fill="#0079F2"/>
<path d="M0.556885 42.2919C0.703446 41.7349 0.873456 41.1839 1.07278 40.6445C0.873456 41.1839 0.703446 41.7291 0.556885 42.2919Z" fill="#0079F2"/>
<path d="M6.12622 33.3694C6.32554 33.1994 6.52487 33.0294 6.73591 32.8711C6.53073 33.0352 6.32554 33.1994 6.12622 33.3694Z" fill="#0079F2"/>
<path d="M41.5587 59.0586C38.5161 62.1774 34.7994 63.3264 33.5448 63.6547C34.858 63.3147 38.5748 62.1657 41.5587 59.0586Z" fill="#0079F2"/>
<path d="M11.0214 38.7444C12.7918 37.2846 15.0489 36.3994 17.5052 36.3877C15.0547 36.3994 12.7918 37.2788 11.0214 38.7444Z" fill="#0079F2"/>
<path d="M7.99048 31.968C8.20739 31.8273 8.4243 31.6925 8.64707 31.5576C8.4243 31.6866 8.20739 31.8273 7.99048 31.968Z" fill="#0079F2"/>
<path d="M7.60364 49.2858C7.50398 48.8989 7.42776 48.5061 7.36914 48.1074C7.42776 48.5061 7.50398 48.9047 7.60364 49.2858Z" fill="#0079F2"/>
<path d="M13.126 60.6237V60.6178L8.68811 51.8887L13.126 60.6237Z" fill="#0079F2"/>
<path d="M6.95288 32.6946C7.21669 32.4895 7.49222 32.296 7.76776 32.1084C7.49222 32.296 7.21669 32.4953 6.95288 32.6946Z" fill="#0079F2"/>
<path d="M29.1656 56.9415H17.5463C17.1594 56.9415 17.4173 56.9533 17.2473 56.9474L16.9483 56.9298C16.6552 56.9122 16.3738 56.9357 16.0983 56.9884C16.3738 56.9357 16.6552 56.9181 16.9483 56.9298L17.2473 56.9474C17.429 56.9474 17.1652 56.9415 17.5463 56.9415H29.1656C29.6815 56.9415 30.4143 56.8946 31.2761 56.7188C31.2937 56.7188 31.323 56.707 31.3465 56.707C31.3465 56.707 31.3406 56.707 31.3347 56.707C30.4554 56.8829 29.705 56.9298 29.1656 56.9415Z" fill="#0079F2"/>
<path d="M20.3837 75.7951C20.3837 77.7942 18.7598 79.4122 16.7666 79.4122C18.7657 79.4122 20.3896 77.7942 20.3896 75.7951H20.3837Z" fill="#0079F2"/>
<path d="M33.3455 63.7013C33.3455 63.7013 33.4103 63.6836 33.4397 63.6777C33.4044 63.6836 33.3691 63.6954 33.3396 63.7013H33.3455Z" fill="#0079F2"/>
<path d="M30.5198 64.1465C30.426 64.1523 30.3322 64.1641 30.2325 64.1699C30.3263 64.1699 30.4201 64.1523 30.5198 64.1465Z" fill="#0079F2"/>
<path d="M33.3162 63.707C33.3162 63.707 33.3338 63.707 33.3397 63.707C33.1462 63.7539 32.9527 63.7891 32.7593 63.8301C32.9469 63.7891 33.1345 63.7539 33.3221 63.7129L33.3162 63.707Z" fill="#0079F2"/>
<path d="M31.2878 64.082C31.0357 64.1113 30.7777 64.1348 30.5198 64.1524C30.7777 64.1348 31.0298 64.1113 31.2878 64.082Z" fill="#0079F2"/>
<path d="M13.5364 77.4248C14.1343 78.6032 15.3537 79.4122 16.7666 79.4122C15.3537 79.4122 14.1285 78.6032 13.5364 77.4248Z" fill="#0079F2"/>
<path d="M17.4525 29.1192C17.1945 29.1192 16.9366 29.1192 16.6845 29.1367H16.5672L16.5496 29.1426H16.4207L16.4148 29.1485L16.28 29.1602H16.2448L16.1627 29.1719H16.1451L16.0103 29.1836L15.8931 29.1954H15.8755L15.7465 29.2071L15.6175 29.2188L15.4885 29.2364L15.3596 29.254L15.2365 29.2716H15.2306L15.1016 29.2892L14.9727 29.3068H14.9492L14.8495 29.3243H14.8437L14.7147 29.3478L14.6209 29.3654H14.5916L14.4626 29.3947L14.3336 29.4181H14.3043L14.2164 29.4416H14.2047L14.0757 29.4709L13.9702 29.4943L13.9116 29.5061L13.7298 29.5471L13.6653 29.5588L13.5657 29.5823L13.4367 29.6116H13.4191L13.3546 29.6292L13.2256 29.6585L13.1787 29.6702L13.126 29.6819L13.0205 29.7113L12.9325 29.7347L12.8094 29.7699H12.7977L12.7215 29.7933L12.616 29.8226L12.4928 29.8578L12.4166 29.8813L12.3228 29.9106L12.1704 29.9575L12.1176 29.9751L11.9535 30.0278L11.9359 30.0337L11.7659 30.0923L11.7366 30.104L11.5783 30.1627L11.508 30.1861L11.3497 30.2447H11.3438L11.1738 30.3151L11.1445 30.3268L11.1093 30.3385L10.9921 30.3854L10.9452 30.403L10.9159 30.4148L10.7576 30.4792H10.7517L10.7283 30.491L10.5993 30.5496L10.5348 30.573H10.5289L10.4117 30.6258H10.4L10.3355 30.661L10.183 30.7313H10.1713L10.1655 30.7372L10.013 30.8075L9.98372 30.8251L9.95441 30.8368L9.83716 30.8955H9.8313L9.74336 30.9424L9.72578 30.9541L9.61439 31.0127H9.60266L9.57922 31.0303L9.43265 31.1065L9.4092 31.1182L9.37989 31.13L9.26851 31.1886L9.25092 31.2003L9.17471 31.2414L9.15126 31.2531L9.03987 31.3117H9.02815L9.0047 31.3293L8.86986 31.4055L8.84055 31.4231L8.8171 31.4348C8.76434 31.4641 8.71158 31.4993 8.65881 31.5345C11.2441 30.0044 14.2574 29.1133 17.4642 29.0957L17.4525 29.1192Z" fill="#0079F2"/>
<path d="M33.4452 63.6779C33.4805 63.672 33.51 63.6602 33.5512 63.6543C33.5159 63.6661 33.4805 63.672 33.4452 63.6779Z" fill="#0079F2"/>
<path d="M44.6132 54.362C44.4959 54.6492 44.3669 54.9306 44.2262 55.2179C44.2262 55.2238 44.2204 55.2355 44.2145 55.2413C44.1676 55.3351 44.1266 55.4231 44.0797 55.5169C44.068 55.5345 44.0621 55.5579 44.0504 55.5755C43.4348 56.7714 42.6258 57.9556 41.5647 59.0578C46.6592 53.8344 46.2488 46.7819 46.1667 45.627C46.3836 49.4082 45.4105 52.4919 44.619 54.362H44.6132Z" fill="#0079F2"/>
<path d="M41.5588 59.0586C42.6199 57.9564 43.4289 56.7722 44.0444 55.5763C44.0562 55.5587 44.062 55.5353 44.0738 55.5177C44.1207 55.4239 44.1617 55.3359 44.2086 55.2421C44.2086 55.2363 44.2145 55.2245 44.2203 55.2187C44.361 54.9314 44.49 54.6442 44.6072 54.3628C45.3987 52.4927 46.3718 49.4032 46.1549 45.6277C46.108 45.7919 45.1173 49.0749 42.1333 49.7842C40.7967 50.1008 39.6476 49.7666 39.0907 49.5497C39.0731 49.6259 39.0438 49.7197 39.0145 49.8135C38.5982 51.2674 37.971 52.3461 37.5723 52.9441C37.0857 53.6417 36.4233 54.3921 35.5146 55.0428C33.9024 56.2036 32.2727 56.526 31.3464 56.7077C31.3288 56.7077 31.2995 56.7195 31.2761 56.7195C30.4143 56.8953 29.6815 56.9364 29.1656 56.9422H17.5463C17.1652 56.9422 17.429 56.954 17.2473 56.9481L16.9483 56.9305C16.6552 56.9129 16.3738 56.9364 16.0982 56.9891C14.4861 57.2823 13.2256 58.6482 13.1318 60.3542C13.1318 60.4421 13.126 60.5359 13.1318 60.6238L8.69398 51.8888C8.65294 51.8067 8.60604 51.7305 8.56501 51.6543C8.14877 50.9098 7.82634 50.1125 7.60943 49.2859C7.50977 48.899 7.43356 48.5062 7.37493 48.1076C7.37493 48.0724 7.36321 48.0372 7.35735 48.002C7.29872 47.5623 7.26941 47.1168 7.26941 46.6654C7.26941 43.9276 8.36568 41.4361 10.1303 39.5894C10.183 39.5308 10.2358 39.4663 10.2886 39.4136C10.5231 39.1791 10.7634 38.9563 11.0214 38.7511C12.7918 37.2914 15.0489 36.4061 17.5052 36.3944C17.5169 36.3944 17.5228 36.3944 17.5345 36.3944C17.5345 36.3944 17.5404 36.3944 17.5463 36.3944H22.758H23.0452H28.8256H29.1715C31.1764 36.3944 32.8062 34.7647 32.8062 32.7597C32.8062 30.7548 31.2174 29.166 29.2418 29.1309C29.2184 29.1309 29.1949 29.1309 29.1773 29.1309H29.1304H17.558C17.5287 29.1309 17.4994 29.1309 17.4642 29.1309C14.2574 29.1484 11.2441 30.0395 8.6588 31.5696C8.43603 31.6986 8.21912 31.8393 8.00221 31.98C7.93186 32.0269 7.85565 32.0738 7.7853 32.1207C7.50977 32.3083 7.23423 32.5018 6.97043 32.7069C6.89421 32.7656 6.82386 32.8242 6.74765 32.8828C6.54247 33.047 6.33728 33.2111 6.13796 33.3811C6.06175 33.4456 5.9914 33.5101 5.91519 33.5746C5.65724 33.8032 5.40516 34.0377 5.1648 34.2781C3.37675 36.0661 1.96977 38.2352 1.08454 40.6505C0.885221 41.1899 0.715211 41.7351 0.56865 42.2979C0.205179 43.699 0.0117188 45.1646 0.0117188 46.6713C0.0117188 48.1779 0.211041 49.667 0.603824 51.1384C0.97902 52.5571 1.53595 53.9289 2.25703 55.2128L13.5422 77.4314C14.1402 78.6098 15.3596 79.4188 16.7724 79.4188C18.7715 79.4188 20.3895 77.8008 20.3895 75.8017L20.3778 64.2117H29.1715C29.5291 64.2117 29.8867 64.1999 30.2384 64.1765C30.3322 64.1706 30.426 64.1589 30.5257 64.153C30.7836 64.1354 31.0357 64.112 31.2937 64.0827C31.4226 64.0651 31.5516 64.0416 31.6806 64.0241C31.8975 63.9947 32.1144 63.9654 32.3313 63.9244C32.4779 63.8951 32.6244 63.8599 32.771 63.8306C32.9644 63.7896 33.1638 63.7544 33.3514 63.7075C33.3807 63.7016 33.4159 63.6899 33.451 63.684C33.4862 63.6782 33.5155 63.6664 33.5566 63.6606C34.8111 63.3323 38.5279 62.1833 41.5705 59.0644L41.5588 59.0586Z" fill="#0079F2"/>
<path d="M7.36911 48.108C7.36911 48.0726 7.35733 48.0373 7.35144 48.002C7.35144 48.0373 7.36322 48.0726 7.36911 48.108Z" fill="#0079F2"/>
<path d="M13.1319 60.3533C13.1319 60.4413 13.126 60.5351 13.1319 60.623C13.1319 60.5351 13.1319 60.4471 13.1319 60.3533Z" fill="#0079F2"/>
<path d="M11.0213 38.7451C10.7693 38.9562 10.523 39.1789 10.2885 39.4076C10.2299 39.4662 10.183 39.5248 10.1302 39.5834C10.183 39.5248 10.2358 39.4603 10.2944 39.4076C10.5289 39.1731 10.7693 38.9503 11.0272 38.7451H11.0213Z" fill="#0079F2"/>
<path d="M31.3464 56.7077C32.2786 56.526 33.9083 56.1977 35.5146 55.0428C36.4233 54.392 37.0858 53.6416 37.5723 52.944C37.971 52.346 38.5983 51.2674 39.0145 49.8135C38.7214 50.8101 38.0296 52.5981 36.3647 54.181C34.4183 56.0218 32.261 56.5201 31.3464 56.7136V56.7077Z" fill="#0079F2"/>
<path d="M46.665 32.7534C46.665 31.2643 46.4657 29.7577 46.0729 28.2862C45.6977 26.8675 45.1408 25.4957 44.4197 24.2118L33.1345 1.98736C32.5365 0.809016 31.3171 0 29.9043 0C27.9052 0 26.2813 1.61803 26.2813 3.61712L26.293 15.2071H17.4994C16.0572 15.2071 14.662 15.383 13.3195 15.7113C12.2232 15.981 8.25434 17.0831 5.10621 20.3544C4.04511 21.4565 3.23609 22.6407 2.62054 23.8366C2.60881 23.8542 2.60295 23.8777 2.59123 23.8953C2.54433 23.9891 2.50329 24.077 2.45639 24.1708C2.45639 24.1767 2.45053 24.1884 2.44467 24.1943C2.30397 24.4815 2.17499 24.7688 2.05775 25.0502C1.14907 27.19 0.0117567 30.9067 0.668349 35.4267C0.920434 37.162 1.60634 41.4533 5.15311 45.1466C8.38917 48.5234 12.1998 49.5082 13.4074 49.8014C14.703 50.1179 16.0514 50.2879 17.4349 50.2938C17.4584 50.2938 17.4818 50.2938 17.4994 50.2938H17.5463H29.1656C29.1656 50.2938 29.2008 50.2938 29.2125 50.2938C34.0021 50.2704 38.3521 48.3006 41.5119 45.1466C44.6893 41.9692 46.665 37.5782 46.665 32.7534ZM36.3764 40.0111C34.5122 41.8695 31.9503 43.0303 29.1363 43.0361H23.6256H17.5346C16.8135 43.0361 16.1159 42.9599 15.4358 42.8133C12.5984 42.2095 10.8045 40.5211 10.2945 40.0111C7.246 36.9626 7.23427 33.0348 7.246 32.3665C7.28703 29.4998 8.47711 27.4069 9.09853 26.4806C9.58511 25.783 10.2476 25.0326 11.1562 24.3819C12.7743 23.2211 14.4099 22.8928 15.3362 22.7111C16.2155 22.5352 16.9659 22.4883 17.5053 22.4766H29.1246C29.5115 22.4766 29.2536 22.4648 29.4236 22.4707L29.7226 22.4883C31.7216 22.5997 33.4335 21.0637 33.539 19.0705C33.539 18.9826 33.5449 18.8888 33.539 18.8008L37.9769 27.5358C38.0179 27.6179 38.0648 27.6941 38.1058 27.7703C38.5221 28.5149 38.8445 29.3122 39.0614 30.1388C39.2842 30.9771 39.3956 31.8565 39.3956 32.7593C39.3956 35.5791 38.2348 38.1527 36.3764 40.017V40.0111Z" fill="#00D6F2"/>
<path d="M32.8003 32.7538C32.8003 34.7588 31.1705 36.3886 29.1656 36.3886H28.8197H29.1304C29.8515 36.3886 30.5491 36.4648 31.2292 36.6113C34.0666 37.2152 35.8605 38.9035 36.3705 39.4136C39.419 42.462 39.4307 46.3899 39.419 47.0582C39.4073 48.0841 39.2372 49.0045 39.0086 49.8194C39.0379 49.7256 39.0614 49.6318 39.0848 49.5556C39.6476 49.7725 40.7908 50.1066 42.1274 49.7901C45.1114 49.0807 46.1022 45.7978 46.1491 45.6336C46.1197 45.1001 46.067 44.5549 45.9849 43.998C45.7328 42.2627 45.0469 37.9714 41.5001 34.2781C38.2641 30.9013 34.4535 29.9164 33.2458 29.6233C31.9561 29.3067 30.6077 29.1426 29.2183 29.1309C31.194 29.166 32.7827 30.7782 32.7827 32.7597L32.8003 32.7538Z" fill="#0079F2"/>
</svg>
